PathFileType	4	(X/Y/Z)	C:/Users/opensim2020/Desktop/walking_exp_matlab/subject03_walking07_straight_01.trc																																																																																																																																								
DataRate	CameraRate	NumFrames	NumMarkers	Units	OrigDataRate	OrigDataStartFrame	OrigNumFrames																																																																																																																																				
100	100	4	46	mm	100	936	310																																																																																																																																				
Frame#	Time	LFHD			RFHD			LBHD			RBHD			C7			T10			CLAV			STRN			RBAK			LSHO			LUPA			LELB			LFRM			LWRA			LWRB			LFIN			RSHO			RUPA			RELB			RFRM			RWRA			RWRB			RFIN			LASI			RASI			LPSI			RPSI			LTHI			LKNE			LTIB			LANK			LHEE			LTOE			RTHI			RKNE			RTIB			RANK			RHEE			RTOE			*39			*40			*41			*42			*43			*44			*45		
		X1	Y1	Z1	X2	Y2	Z2	X3	Y3	Z3	X4	Y4	Z4	X5	Y5	Z5	X6	Y6	Z6	X7	Y7	Z7	X8	Y8	Z8	X9	Y9	Z9	X10	Y10	Z10	X11	Y11	Z11	X12	Y12	Z12	X13	Y13	Z13	X14	Y14	Z14	X15	Y15	Z15	X16	Y16	Z16	X17	Y17	Z17	X18	Y18	Z18	X19	Y19	Z19	X20	Y20	Z20	X21	Y21	Z21	X22	Y22	Z22	X23	Y23	Z23	X24	Y24	Z24	X25	Y25	Z25	X26	Y26	Z26	X27	Y27	Z27	X28	Y28	Z28	X29	Y29	Z29	X30	Y30	Z30	X31	Y31	Z31	X32	Y32	Z32	X33	Y33	Z33	X34	Y34	Z34	X35	Y35	Z35	X36	Y36	Z36	X37	Y37	Z37	X38	Y38	Z38	X39	Y39	Z39	X40	Y40	Z40	X41	Y41	Z41	X42	Y42	Z42	X43	Y43	Z43	X44	Y44	Z44	X45	Y45	Z45	X46	Y46	Z46
																																																																																																																																											
272	2.71	1072.0033	1627.45984	1390.20496	1078.97375	1632.70459	1524.27258	949.10388	1572.88123	1402.24207	959.94385	1578.06799	1532.33459	934.31958	1416.94592	1459.10522	906.34595	1103.97791	1455.53601	1060.0968	1345.53882	1454.93555	1106.31531	1181.20911	1445.87708	889.2951	1240.16406	1552.98877	1008.33282	1383.49939	1301.81335	1032.56714	1192.70386	1226.46497	1071.76416	1076.1709	1214.1792	1144.25781	968.88544	1222.30066	1206.20264	870.87964	1260.72766	1186.71521	863.62854	1209.11755	1237.15808	798.34723	1222.83325	1016.13672	1367.68823	1616.55273	1010.74097	1145.30994	1689.70703	1020.84113	1032.72986	1702.58533	1027.66443	895.83673	1706.60999	1047.00244	797.54218	1670.47961	1018.9353	795.6308	1717.36462	1033.36316	721.76709	1705.54651	1066.77844	940.84436	1331.85425	1076.05847	943.6521	1569.16443	908.58185	964.18164	1388.98608	912.91125	967.46436	1537.21667	996.52234	637.177	1315.20483	983.70233	462.40363	1364.82385	913.73999	278.30066	1374.98181	870.57092	76.07415	1428.74756	828.23199	45.41592	1467.17957	1020.59467	35.65427	1441.99268	1099.23889	656.23932	1624.94275	1172.33252	492.73132	1596.48767	1114.54761	308.9278	1606.26477	1063.2417	96.63974	1569.16663	1015.74365	67.7815	1517.72058	1193.474	43.30387	1553.16589	NaN	NaN	NaN	987.46326	1680.73975	1448.84961	NaN	NaN	NaN	NaN	NaN	NaN	NaN	NaN	NaN	NaN	NaN	NaN	NaN	NaN	NaN
273	2.72	1081.2699	1626.69006	1390.08264	1088.05078	1632.00769	1523.83667	958.25427	1571.80457	1401.87476	969.11426	1577.05676	1531.99451	943.55969	1415.98853	1458.94128	913.51398	1103.78455	1455.61218	1069.34265	1344.58081	1454.60327	1115.18237	1180.13159	1445.34949	898.55438	1239.65027	1553.06921	1017.40454	1382.60364	1301.65002	1042.55042	1192.15393	1226.13513	1083.42017	1076.31494	1214.21936	1158.04785	970.6994	1223.09717	1222.35815	874.64008	1262.38318	1203.0354	866.30219	1210.99988	1255.21436	802.58624	1225.51404	1025.73279	1366.85535	1616.31042	1019.17511	1144.52344	1689.49963	1028.51819	1031.84375	1702.32544	1034.14832	894.82306	1706.48474	1052.44177	796.32391	1670.40515	1024.5116	794.7641	1717.27698	1038.03381	720.70557	1705.56506	1074.6781	940.05878	1331.44788	1085.46887	942.71484	1568.42468	917.04932	963.36719	1389.81787	922.11505	966.62622	1537.68835	1002.4104	636.72424	1315.2981	987.42059	462.01013	1364.91638	915.53656	278.5835	1375.5741	870.71375	76.60116	1429.43542	828.3894	46.33294	1468.19421	1020.67749	35.59453	1441.93994	1108.00146	655.14172	1624.58862	1181.4707	491.93314	1596.03931	1132.50732	305.90176	1605.5188	1093.55957	90.81242	1567.80408	1048.12854	59.90906	1516.08411	1226.69324	43.98654	1552.18896	NaN	NaN	NaN	996.37653	1679.84668	1448.22864	NaN	NaN	NaN	NaN	NaN	NaN	NaN	NaN	NaN	NaN	NaN	NaN	NaN	NaN	NaN
274	2.73	1090.29797	1625.81494	1389.62341	1097.11462	1631.25647	1523.39197	967.47443	1570.60754	1401.52722	978.3736	1576.06042	1531.65381	952.98456	1415.19153	1458.78955	922.646	1102.28113	1456.42004	1078.65796	1343.55176	1454.27502	1124.09021	1178.98608	1444.82141	907.93054	1238.86133	1552.98596	1026.5553	1381.59619	1301.45166	1052.72107	1191.66614	1225.88281	1094.72388	1076.18127	1214.2627	1171.47766	972.41058	1223.97192	1238.02576	878.40161	1264.20923	1218.98999	868.9707	1212.93494	1272.78381	806.82275	1228.23486	1035.38135	1365.90906	1616.0647	1027.68311	1143.70288	1689.37952	1036.52795	1031.00708	1702.30835	1040.87756	893.82623	1706.35999	1058.28223	795.19305	1670.35962	1030.46899	793.89508	1717.32373	1043.17444	719.6488	1705.5116	1082.65601	939.13837	1330.78308	1094.92859	941.75574	1567.76929	925.36359	962.22894	1390.31213	931.28906	965.64264	1538.11609	1008.32697	636.15649	1315.47559	991.40131	461.60648	1365.10254	917.42462	279.00266	1376.11462	870.97455	77.38527	1430.20215	828.54089	47.21671	1469.15332	1020.64233	35.60784	1442.09717	1115.88123	653.74786	1624.13196	1190.10583	490.78555	1595.29004	1149.8313	303.41049	1604.68079	1123.83374	86.63163	1566.78052	1080.07288	53.52973	1514.11047	1259.16528	45.17458	1551.63721	NaN	NaN	NaN	1005.26215	1678.97705	1448.75732	NaN	NaN	NaN	NaN	NaN	NaN	NaN	NaN	NaN	NaN	NaN	NaN	NaN	NaN	NaN
275	2.74	1099.39063	1624.90527	1389.18079	1106.28357	1630.4801	1522.99915	976.71143	1569.36926	1401.22485	987.66772	1574.94617	1531.29919	962.44098	1414.42761	1458.6781	931.03369	1101.97363	1456.49487	1088.00452	1342.50232	1453.97058	1132.99939	1177.83655	1444.30701	917.40717	1238.35083	1553.19751	1035.82922	1380.54883	1301.29309	1062.70227	1191.01941	1225.7074	1105.82007	1075.97949	1214.25183	1184.6626	973.99335	1224.78076	1253.21069	882.03162	1266.06335	1234.54614	871.60913	1214.89526	1289.91809	811.02997	1230.89319	1045.10632	1364.96411	1615.85266	1036.26721	1142.83142	1689.27161	1044.22534	1029.96729	1702.02808	1047.85681	892.88593	1706.33862	1064.40771	794.04474	1670.2373	1036.76318	793.00043	1717.36047	1048.66943	718.57025	1705.40955	1090.82092	938.15381	1330.52405	1104.43762	940.75134	1567.25415	933.96069	961.18469	1390.55762	940.55542	964.59229	1538.42273	1014.28619	635.60803	1315.68982	995.59442	461.27609	1365.2063	919.45215	279.37927	1376.5	871.20367	78.22141	1430.90247	829.09937	48.05192	1469.84741	1020.6485	35.51812	1442.16235	1123.06104	652.22821	1623.76257	1198.32227	489.55112	1594.38318	1166.63086	301.10449	1603.77539	1153.01904	83.02818	1565.18665	1111.38245	48.61487	1511.78223	1290.30554	46.27031	1551.09717	NaN	NaN	NaN	1014.24622	1677.91736	1448.38562	NaN	NaN	NaN	NaN	NaN	NaN	NaN	NaN	NaN	NaN	NaN	NaN	NaN	NaN	NaN
